<?xml version="1.0" encoding="UTF-8" standalone="no"?>
<!-- Created with Inkscape (http://www.inkscape.org/) -->

<svg
   xmlns:dc="http://purl.org/dc/elements/1.1/"
   xmlns:cc="http://creativecommons.org/ns#"
   xmlns:rdf="http://www.w3.org/1999/02/22-rdf-syntax-ns#"
   xmlns:svg="http://www.w3.org/2000/svg"
   xmlns="http://www.w3.org/2000/svg"
   xmlns:sodipodi="http://sodipodi.sourceforge.net/DTD/sodipodi-0.dtd"
   xmlns:inkscape="http://www.inkscape.org/namespaces/inkscape"
   width="210mm"
   height="297mm"
   viewBox="0 0 210 297"
   version="1.1"
   id="svg8"
   inkscape:version="0.92.5 (2060ec1f9f, 2020-04-08)"
   sodipodi:docname="drawing.svg">
  <defs
     id="defs2" />
  <sodipodi:namedview
     id="base"
     pagecolor="#ffffff"
     bordercolor="#666666"
     borderopacity="1.0"
     inkscape:pageopacity="0.0"
     inkscape:pageshadow="2"
     inkscape:zoom="0.35"
     inkscape:cx="405.71429"
     inkscape:cy="545.71429"
     inkscape:document-units="mm"
     inkscape:current-layer="layer1"
     showgrid="false"
     inkscape:window-width="2488"
     inkscape:window-height="1376"
     inkscape:window-x="72"
     inkscape:window-y="27"
     inkscape:window-maximized="1" />
  <metadata
     id="metadata5">
    <rdf:RDF>
      <cc:Work
         rdf:about="">
        <dc:format>image/svg+xml</dc:format>
        <dc:type
           rdf:resource="http://purl.org/dc/dcmitype/StillImage" />
        <dc:title></dc:title>
      </cc:Work>
    </rdf:RDF>
  </metadata>
  <g
     inkscape:label="Layer 1"
     inkscape:groupmode="layer"
     id="layer1">
    <path
       id="path3713"
       d="m 174.17831,62.802388 c -9.3598,-0.581631 -18.74557,-0.693515 -28.11928,-0.522126 -11.15782,0.193244 -22.2987,1.055341 -33.34405,2.640002 -2.46146,0.553265 -5.02986,0.807077 -7.39999,1.727674 -0.43622,0.169436 -1.6642,0.855466 -1.25852,0.622183 9.61456,-5.528749 11.39467,-6.892136 8.10327,-4.449193 -0.19259,0.182623 -0.40111,0.349808 -0.57779,0.54787 -0.71645,0.80314 -1.21547,1.793475 -1.85263,2.656038 -0.40497,0.54823 -1.81283,2.303936 -2.20762,2.799276 -3.22534,3.886967 -6.79723,7.459792 -10.215664,11.171941 -3.160207,3.317639 -5.65668,7.07676 -7.229993,11.37553 -0.954133,3.25837 -1.238716,6.675342 -1.560661,10.044257 -0.363321,3.45192 -1.018826,6.861 -1.428742,10.30648 -0.40368,3.22116 -0.459632,6.45049 -0.06244,9.67107 0.585406,3.41134 1.413269,6.7743 2.7847,9.95585 1.121391,2.62754 2.955017,4.62095 5.205333,6.3114 3.165708,2.57624 6.563747,4.82407 9.538217,7.62694 2.27348,2.3473 4.80878,4.53557 6.80702,7.13866 1.30664,1.70214 1.82,2.78133 2.85921,4.64433 1.39526,2.70861 2.65542,5.53474 3.30168,8.52832 0.34997,1.62115 0.41452,2.66829 0.58865,4.32007 0.366,4.7336 -0.94831,9.26812 -2.74916,13.58569 -2.27609,4.87954 -5.32698,9.34322 -8.38889,13.75393 -2.85769,4.06703 -5.72069,8.12509 -8.704868,12.10037 -2.487192,3.3854 -5.271942,6.52287 -8.271346,9.45799 -3.494998,3.31861 -7.324228,6.23591 -11.25837,9.00693 -4.278363,3.10494 -8.883139,5.70148 -13.345829,8.5204 -1.958081,0.99629 -3.618146,2.4797 -5.466887,3.63358 -0.02371,0.004 -0.04744,0.009 -0.07115,0.0134 0,0 -10.343989,4.61932 -10.343989,4.61932 v 0 c 0.01027,-0.0559 0.02056,-0.11189 0.03082,-0.16784 0.690237,-1.57138 4.193797,-3.06933 5.498391,-4.07246 4.454575,-2.86237 9.115859,-5.39372 13.415909,-8.49718 3.921916,-2.71793 7.739679,-5.57144 11.249681,-8.81462 3.027122,-2.88221 5.870787,-5.93883 8.361574,-9.30505 2.996798,-3.97788 5.91924,-8.00282 8.769104,-12.08813 3.07281,-4.33668 6.07839,-8.75792 8.44216,-13.52964 1.84025,-4.12818 3.25077,-8.48817 2.98163,-13.07107 -0.43374,-4.4466 -1.4116,-8.53801 -3.62975,-12.47654 -1.09992,-1.97746 -1.36534,-2.63462 -2.76221,-4.42634 -1.997604,-2.56226 -4.467614,-4.75092 -6.75818,-7.03708 -3.002341,-2.73621 -6.370585,-4.99543 -9.574581,-7.48523 -2.34389,-1.85308 -4.254846,-4.04188 -5.455732,-6.81642 -1.440248,-3.26508 -2.252588,-6.73406 -2.947424,-10.22697 -0.444981,-3.29915 -0.457144,-6.61494 -0.04686,-9.92255 0.395951,-3.44112 1.017952,-6.84413 1.442294,-10.28147 0.300098,-3.44927 0.605517,-6.936993 1.465802,-10.29613 1.445485,-4.467891 3.905377,-8.391797 7.120403,-11.821956 3.356311,-3.717938 6.924963,-7.23646 10.16087,-11.064737 1.5743,-2.002309 3.183968,-3.958069 4.454648,-6.170949 6.12789,-5.795438 12.16169,-7.49877 19.74696,-8.663072 11.01277,-1.390676 22.0912,-2.184275 33.19178,-2.373643 9.54581,-0.195556 19.09683,-0.09445 28.63815,0.277133 0,0 -9.12566,6.523722 -9.12566,6.523722 z"
       inkscape:connector-curvature="0"
       style="stroke-width:0.26458332" />
  </g>
</svg>
